# xmcd CD database file
#
# Track frame offsets:
#	150
#	30257
#	55731
#	77063
#	106891
#	128215
#	157983
#	193044
#	228704
#
# Disc length: 3297 seconds
#
# Revision: 0
# Processed by: cddbd v1.5.2PL0 Copyright (c) Steve Scherf et al.
# Submitted via: CDex 1.94
#
DISCID=680cdf09
DTITLE=Anton Delecca Quartet - Lost City
DYEAR=2010
DGENRE=Jazz
TTITLE0=Catalyst
TTITLE1=The Beautiful Corner
TTITLE2=A Dog's Tale
TTITLE3=Blues Bungle
TTITLE4=Why Can't Everybody Be Nice (Like Gareth)?
TTITLE5=Regulated
TTITLE6=Elena's Dilemma
TTITLE7=Living With Weirdness
TTITLE8=Lost City
EXTD=YEAR: 2010
EXTT0=
EXTT1=
EXTT2=
EXTT3=
EXTT4=
EXTT5=
EXTT6=
EXTT7=
EXTT8=
PLAYORDER=
